<svg xmlns="http://www.w3.org/2000/svg" xmlns:xlink="http://www.w3.org/1999/xlink" width="640" height="754" viewBox="0 0 640 754">
  <defs>
    <style>
      .cls-1, .cls-2, .cls-3 {
        fill-rule: evenodd;
      }

      .cls-1 {
        fill: url(#linear-gradient);
      }

      .cls-2 {
        fill: url(#linear-gradient-2);
      }

      .cls-3 {
        fill: url(#linear-gradient-3);
      }
    </style>
    <linearGradient id="linear-gradient" x1="9" y1="17.314" x2="429.469" y2="395.905" gradientUnits="userSpaceOnUse">
      <stop offset="0" stop-color="#01567f"/>
      <stop offset="0.551" stop-color="#01567f"/>
      <stop offset="1" stop-color="#94cddd"/>
    </linearGradient>
    <linearGradient id="linear-gradient-2" x1="73" y1="214.66" x2="555.75" y2="540.278" gradientUnits="userSpaceOnUse">
      <stop offset="0"/>
      <stop offset="0.009"/>
      <stop offset="0.247" stop-color="#01567f"/>
      <stop offset="0.5" stop-color="#01567f"/>
      <stop offset="0.753" stop-color="#01567f"/>
      <stop offset="0.991"/>
      <stop offset="1"/>
    </linearGradient>
    <linearGradient id="linear-gradient-3" x1="330.953" y1="742" x2="330.953" y2="344.938" gradientUnits="userSpaceOnUse">
      <stop offset="0" stop-color="#014463"/>
      <stop offset="1" stop-color="#73c6ff"/>
    </linearGradient>
  </defs>
  <path class="cls-1" d="M429.469,12L428.5,196.434s-203.71-9.716-244,8.736C119.6,234.893,70.23,281.9,75.62,400.282c0.722,15.869-146.248-174.3-5.833-314.508C153.525,2.157,228.242,13.941,228.242,13.941Z"/>
  <path class="cls-2" d="M216.7,196.434c-25.725,13.249-49.155,75.774,11.717,93.2,93.621-1.834,203.1,2.943,203.1,2.943s78.909,7.668,117.522,51.4c19.086,52.129-7.182,122.708-21.387,143.664-41.1,60.639-103.044,70.862-103.044,70.862s29.937-10.945,25.275-46.594c-5.351-40.925-54.495-43.718-54.495-43.718s-65.45-2.89-142.388.1C175.408,471.3,119.462,442.869,74,401,60.29,221.258,190.891,201.083,216.7,196.434Z"/>
  <path class="cls-3" d="M433.357,555.594C418.373,560.469,30.9,562.389,30.9,562.389L207.827,741s194.816-.186,223.586.971,100.243-35.211,111.793-45.623,74.441-50.485,86.518-164.049c13.145-123.605-79.713-187.346-79.713-187.346S587.84,505.34,433.357,555.594Z"/>
</svg>
