<?xml version="1.0" standalone="no"?>
<!DOCTYPE svg PUBLIC "-//W3C//DTD SVG 20010904//EN"
 "http://www.w3.org/TR/2001/REC-SVG-20010904/DTD/svg10.dtd">
<svg version="1.0" xmlns="http://www.w3.org/2000/svg"
 width="333.000000pt" height="392.000000pt" viewBox="0 0 333.000000 392.000000"
 preserveAspectRatio="xMidYMid meet">

<g transform="translate(0.000000,392.000000) scale(0.100000,-0.100000)"
fill="#000000" stroke="none">
<path d="M1066 3903 c-3 -4 4 -13 16 -20 19 -10 20 -12 5 -13 -10 0 -16 -4
-12 -9 3 -5 0 -13 -6 -17 -8 -5 -10 -1 -7 14 7 26 -12 35 -32 14 -13 -14 -12
-15 3 -9 14 5 17 0 17 -35 0 -39 -1 -40 -14 -22 -17 22 -20 17 -32 -61 -6 -38
-9 -43 -12 -22 -3 24 -21 39 -23 20 -3 -28 -11 -58 -17 -63 -12 -9 -32 -49
-32 -65 0 -8 -9 -15 -20 -15 -13 0 -20 -7 -20 -18 0 -22 -20 -50 -40 -54 -19
-4 -80 -59 -80 -72 0 -6 -15 -22 -33 -36 -49 -38 -167 -162 -167 -177 0 -7 -4
-13 -9 -13 -5 0 -25 -25 -46 -55 -20 -30 -39 -55 -44 -55 -4 0 -15 -17 -25
-37 -10 -21 -26 -43 -37 -51 -10 -7 -19 -21 -19 -31 0 -10 -9 -28 -19 -40 -10
-12 -25 -36 -32 -54 -24 -60 -111 -177 -132 -177 -5 0 -17 -8 -26 -18 -22 -25
-90 -49 -129 -46 -31 2 -32 1 -32 -41 0 -262 145 -591 349 -796 178 -178 451
-314 695 -348 47 -7 277 -11 579 -11 311 0 516 -4 539 -10 65 -18 130 -70 160
-129 67 -129 11 -279 -127 -337 -31 -13 -178 -15 -1065 -14 -567 0 -1030 -3
-1030 -7 0 -5 217 -225 483 -491 l482 -482 576 0 c466 0 593 3 662 15 385 67
714 312 891 662 163 325 167 720 11 1051 -63 132 -126 223 -230 330 -161 168
-359 281 -599 344 -76 20 -113 22 -651 27 l-570 6 -47 23 c-84 41 -148 142
-148 232 0 56 30 128 71 170 76 78 47 75 662 78 l547 3 0 485 0 484 -540 0
c-336 -1 -542 -5 -545 -11 -4 -5 -10 -7 -15 -4 -5 3 -11 1 -15 -5 -3 -5 -1
-10 5 -10 6 0 8 -5 5 -10 -4 -6 -12 -4 -21 5 -9 8 -23 15 -32 15 -15 0 -15 2
-2 10 13 8 13 10 -1 10 -9 0 -19 -3 -23 -7z m727 -30 c-7 -2 -19 -2 -25 0 -7
3 -2 5 12 5 14 0 19 -2 13 -5z m110 0 c-13 -2 -33 -2 -45 0 -13 2 -3 4 22 4
25 0 35 -2 23 -4z m-813 -81 c0 -7 -4 -10 -10 -7 -5 3 -10 16 -10 28 0 18 2
19 10 7 5 -8 10 -21 10 -28z"/>
<path d="M1110 3900 c0 -5 5 -10 10 -10 6 0 10 5 10 10 0 6 -4 10 -10 10 -5 0
-10 -4 -10 -10z"/>
<path d="M1005 3890 c-3 -6 1 -7 9 -4 18 7 21 14 7 14 -6 0 -13 -4 -16 -10z"/>
<path d="M963 3853 c9 -2 23 -2 30 0 6 3 -1 5 -18 5 -16 0 -22 -2 -12 -5z"/>
</g>
</svg>
