<svg id="s_copy" data-name="s copy" xmlns="http://www.w3.org/2000/svg" xmlns:xlink="http://www.w3.org/1999/xlink" width="640" height="754" viewBox="0 0 640 754">
  <defs>
    <style>
      .cls-1 {
        stroke-linejoin: round;
        stroke-width: 1px;
        fill: url(#radial-gradient);
        stroke: url(#linear-gradient);
      }

      .cls-2, .cls-3, .cls-4 {
        fill-rule: evenodd;
      }

      .cls-2 {
        fill: url(#linear-gradient-2);
      }

      .cls-3 {
        fill: url(#linear-gradient-3);
      }

      .cls-4 {
        fill: url(#linear-gradient-4);
      }
    </style>
    <radialGradient id="radial-gradient" cx="320.5" cy="376.5" r="313.5" gradientUnits="userSpaceOnUse">
      <stop offset="0" stop-color="#fff"/>
      <stop offset="0.192" stop-color="#fff" stop-opacity="0"/>
      <stop offset="1" stop-color="#fff"/>
    </radialGradient>
    <linearGradient id="linear-gradient" x1="320.5" y1="690" x2="320.5" y2="63" gradientUnits="userSpaceOnUse">
      <stop offset="0" stop-color="#58a0c2"/>
      <stop offset="1" stop-color="#004360"/>
    </linearGradient>
    <linearGradient id="linear-gradient-2" x1="145.031" y1="174.857" x2="395.375" y2="400.268" gradientUnits="userSpaceOnUse">
      <stop offset="-0.13" stop-color="#01567f"/>
      <stop offset="0.526" stop-color="#01567f"/>
      <stop offset="1.13" stop-color="#94cddd"/>
    </linearGradient>
    <linearGradient id="linear-gradient-3" x1="183.125" y1="292.3" x2="470.594" y2="486.2" gradientUnits="userSpaceOnUse">
      <stop offset="0"/>
      <stop offset="0.009"/>
      <stop offset="0.247" stop-color="#01567f"/>
      <stop offset="0.5" stop-color="#01567f"/>
      <stop offset="0.753" stop-color="#01567f"/>
      <stop offset="0.991"/>
      <stop offset="1"/>
    </linearGradient>
    <linearGradient id="linear-gradient-4" x1="336.734" y1="606.188" x2="336.734" y2="369.906" gradientUnits="userSpaceOnUse">
      <stop offset="0" stop-color="#014463"/>
      <stop offset="1" stop-color="#73c6ff"/>
    </linearGradient>
  </defs>
  <circle id="o" class="cls-1" cx="320.5" cy="376.5" r="313.5"/>
  <path class="cls-2" d="M395.381,171.726L394.8,281.5s-121.3-5.783-145.293,5.2c-38.645,17.691-68.041,45.667-64.831,116.13,0.43,9.445-87.085-103.741-3.474-187.195,49.863-49.768,94.354-42.754,94.354-42.754Z"/>
  <path class="cls-3" d="M268.685,281.5c-15.318,7.886-29.27,45.1,6.977,55.474,55.748-1.091,120.939,1.752,120.939,1.752s46.987,4.564,69.98,30.594c11.365,31.027-4.277,73.036-12.735,85.508-24.475,36.092-61.359,42.177-61.359,42.177s17.826-6.514,15.05-27.733c-3.186-24.358-32.449-26.02-32.449-26.02s-38.973-1.72-84.787.056c-46.2,1.792-79.516-15.13-106.587-40.051C175.55,296.275,253.318,284.267,268.685,281.5Z"/>
  <path class="cls-4" d="M397.7,495.272c-8.923,2.9-239.646,4.044-239.646,4.044L263.4,605.624s116.005-.11,133.136.578,59.69-20.957,66.568-27.155S507.434,549,514.625,481.405c7.827-73.569-47.466-111.507-47.466-111.507S489.685,465.36,397.7,495.272Z"/>
</svg>
