<svg id="s_copy" data-name="s copy" xmlns="http://www.w3.org/2000/svg" xmlns:xlink="http://www.w3.org/1999/xlink" width="659" height="674" viewBox="0 0 659 674">
  <defs>
    <style>
      .cls-1 {
        stroke-linejoin: round;
        stroke-width: 12px;
        fill: url(#radial-gradient);
        stroke: url(#linear-gradient);
      }

      .cls-2, .cls-3, .cls-4 {
        fill-rule: evenodd;
      }

      .cls-2 {
        fill: url(#linear-gradient-2);
      }

      .cls-3 {
        fill: url(#linear-gradient-3);
      }

      .cls-4 {
        fill: url(#linear-gradient-4);
      }
    </style>
    <radialGradient id="radial-gradient" cx="329.5" cy="337.5" r="313.5" gradientUnits="userSpaceOnUse">
      <stop offset="0" stop-color="#fff"/>
      <stop offset="0.192" stop-color="#fff" stop-opacity="0"/>
      <stop offset="1" stop-color="#fff"/>
    </radialGradient>
    <linearGradient id="linear-gradient" x1="329.5" y1="651" x2="329.5" y2="24" gradientUnits="userSpaceOnUse">
      <stop offset="0" stop-color="#58a0c2"/>
      <stop offset="1" stop-color="#004360"/>
    </linearGradient>
    <linearGradient id="linear-gradient-2" x1="84.813" y1="54.549" x2="415.25" y2="352.076" gradientUnits="userSpaceOnUse">
      <stop offset="-0.13" stop-color="#01567f"/>
      <stop offset="0.526" stop-color="#01567f"/>
      <stop offset="1.13" stop-color="#94cddd"/>
    </linearGradient>
    <linearGradient id="linear-gradient-3" x1="135.125" y1="209.57" x2="514.5" y2="465.461" gradientUnits="userSpaceOnUse">
      <stop offset="0"/>
      <stop offset="0.009"/>
      <stop offset="0.247" stop-color="#01567f"/>
      <stop offset="0.5" stop-color="#01567f"/>
      <stop offset="0.753" stop-color="#01567f"/>
      <stop offset="0.991"/>
      <stop offset="1"/>
    </linearGradient>
    <linearGradient id="linear-gradient-4" x1="337.828" y1="623.844" x2="337.828" y2="311.969" gradientUnits="userSpaceOnUse">
      <stop offset="0" stop-color="#014463"/>
      <stop offset="1" stop-color="#73c6ff"/>
    </linearGradient>
  </defs>
  <circle id="o" class="cls-1" cx="329.5" cy="337.5" r="313.5"/>
  <path class="cls-2" d="M415.254,50.429l-0.764,144.88s-160.092-7.633-191.756,6.862c-51,23.349-89.8,60.271-85.564,153.268,0.568,12.466-114.934-136.917-4.584-247.058C198.4,42.7,257.113,51.954,257.113,51.954Z"/>
  <path class="cls-3" d="M248.042,195.309c-20.217,10.408-38.631,59.523,9.208,73.214,73.576-1.44,159.613,2.312,159.613,2.312s62.014,6.024,92.359,40.377c15,40.95-5.644,96.392-16.807,112.854-32.3,47.634-80.981,55.664-80.981,55.664s23.527-8.6,19.863-36.6c-4.205-32.148-42.826-34.342-42.826-34.342s-51.436-2.27-111.9.075C215.591,411.226,171.625,388.893,135.9,356,125.123,214.809,227.76,198.961,248.042,195.309Z"/>
  <path class="cls-4" d="M418.31,477.443c-11.776,3.829-316.282,5.337-316.282,5.337L241.07,623.085s153.1-.146,175.712.762,78.779-27.659,87.856-35.838,58.5-39.657,67.993-128.867c10.33-97.1-62.645-147.167-62.645-147.167S539.716,437.966,418.31,477.443Z"/>
</svg>
